<svg width="81" height="60" viewBox="0 0 81 60" fill="none" xmlns="http://www.w3.org/2000/svg">
<path d="M41.3366 36.8954C32.0975 36.8954 22.8584 36.8999 13.6193 36.8954C7.60162 36.8909 2.59469 33.3336 0.711251 27.7493C-2.20074 19.1111 4.1954 10.0167 13.2186 10.0055C26.1533 9.99198 52.0228 10.0077 52.0228 10.0077C52.0228 10.0077 52.7864 9.98974 52.7864 10.7763C52.7864 11.5628 52.0228 11.5043 52.0228 11.5043C52.0228 11.5043 26.1088 11.5043 13.3744 11.5043C8.16488 11.5043 3.40729 15.0122 2.0114 19.8976C0.468584 25.2909 2.51455 30.7718 7.17195 33.6504C9.15557 34.8774 11.3396 35.41 13.6594 35.41C32.1153 35.4055 50.5713 35.4055 69.0272 35.3965C72.8809 35.3965 75.8241 33.7718 77.5829 30.2549C80.3168 24.7875 76.8393 18.1133 70.8372 17.2437C70.2005 17.1515 69.5526 17.0998 68.9115 17.0998C54.6409 17.0909 40.3704 17.0998 26.0999 17.0864C24.5637 17.0864 23.0877 17.2279 21.7475 18.0909C19.6013 19.4729 18.4214 22.1695 18.9379 24.6077C19.5078 27.2976 21.507 29.2976 24.1252 29.6302C25.3763 29.7897 27.7406 29.765 27.7406 29.765C27.7406 29.765 28.6312 29.7431 28.6312 30.4392C28.6312 31.2946 27.7406 31.2257 27.7406 31.2257C27.7406 31.2257 24.94 31.2549 23.4818 31.0145C19.6525 30.3852 16.9387 26.4392 17.3906 22.5448C17.8359 18.7111 21.1686 15.5875 25.3385 15.601C39.8539 15.6482 54.3693 15.6302 68.8848 15.6077C71.3916 15.6032 73.6846 16.1875 75.715 17.6954C80.4548 21.219 81.421 28.0122 77.8166 32.7201C75.7796 35.383 73.0524 36.8302 69.7196 36.8684C64.0426 36.9358 58.3655 36.8954 52.6885 36.8976C48.9038 36.8976 45.1191 36.8976 41.3344 36.8976L41.3366 36.8954Z" fill="white"/>
<path d="M39.0345 29.6233V30.6742H34.2071V29.6233H39.0345ZM34.459 20.9287V30.6742H33.1792V20.9287H34.459Z" fill="white"/>
<path d="M43.7738 20.9287V30.6742H42.494V20.9287H43.7738Z" fill="white"/>
<path d="M51.5634 26.8523H48.9839V25.8014H51.5634C52.063 25.8014 52.4674 25.7211 52.7769 25.5605C53.0863 25.3999 53.3118 25.1767 53.4533 24.8912C53.5991 24.6056 53.6721 24.2798 53.6721 23.9139C53.6721 23.5793 53.5991 23.2647 53.4533 22.9702C53.3118 22.6757 53.0863 22.4392 52.7769 22.2607C52.4674 22.0777 52.063 21.9863 51.5634 21.9863H49.2823V30.6742H48.0025V20.9287H51.5634C52.2928 20.9287 52.9095 21.0559 53.4135 21.3102C53.9174 21.5646 54.2998 21.9171 54.5606 22.3678C54.8215 22.814 54.9519 23.3249 54.9519 23.9006C54.9519 24.5253 54.8215 25.0585 54.5606 25.5002C54.2998 25.942 53.9174 26.2789 53.4135 26.5109C52.9095 26.7385 52.2928 26.8523 51.5634 26.8523Z" fill="white"/>
<path d="M63.6168 28.211C63.6168 27.9835 63.5814 27.7827 63.5107 27.6086C63.4444 27.4302 63.325 27.2695 63.1526 27.1267C62.9846 26.9839 62.7503 26.8478 62.4497 26.7184C62.1535 26.589 61.7778 26.4574 61.3224 26.3235C60.845 26.1807 60.414 26.0223 60.0294 25.8483C59.6448 25.6698 59.3155 25.4668 59.0414 25.2392C58.7673 25.0116 58.5573 24.7506 58.4114 24.4561C58.2655 24.1616 58.1926 23.8247 58.1926 23.4454C58.1926 23.0661 58.27 22.7158 58.4247 22.3946C58.5794 22.0733 58.8004 21.7944 59.0878 21.5579C59.3796 21.3169 59.7266 21.1295 60.1289 20.9957C60.5311 20.8618 60.9798 20.7949 61.475 20.7949C62.2 20.7949 62.8144 20.9354 63.3184 21.2165C63.8268 21.4932 64.2136 21.8569 64.4788 22.3075C64.7441 22.7538 64.8767 23.2312 64.8767 23.7399H63.6035C63.6035 23.374 63.5262 23.0505 63.3714 22.7694C63.2167 22.4838 62.9824 22.2607 62.6686 22.1001C62.3547 21.935 61.9568 21.8524 61.475 21.8524C61.0196 21.8524 60.6439 21.9216 60.3477 22.0599C60.0515 22.1982 59.8305 22.3856 59.6846 22.6221C59.5431 22.8586 59.4724 23.1286 59.4724 23.432C59.4724 23.6373 59.5144 23.8247 59.5984 23.9943C59.6868 24.1594 59.8216 24.3133 60.0029 24.4561C60.1885 24.5989 60.4228 24.7305 60.7058 24.851C60.9931 24.9715 61.3357 25.0875 61.7336 25.1991C62.2817 25.3552 62.7548 25.5293 63.1526 25.7211C63.5505 25.913 63.8776 26.1294 64.134 26.3704C64.3948 26.6069 64.5871 26.8768 64.7109 27.1803C64.8391 27.4792 64.9032 27.8184 64.9032 28.1976C64.9032 28.5948 64.8236 28.954 64.6645 29.2753C64.5054 29.5965 64.2777 29.871 63.9815 30.0985C63.6853 30.3261 63.3294 30.5024 62.9139 30.6273C62.5028 30.7478 62.043 30.808 61.5346 30.808C61.0882 30.808 60.6483 30.7456 60.2151 30.6206C59.7863 30.4957 59.395 30.3083 59.0414 30.0584C58.6921 29.8085 58.4114 29.5006 58.1992 29.1347C57.9915 28.7643 57.8876 28.336 57.8876 27.8496H59.1607C59.1607 28.1843 59.2248 28.4721 59.353 28.713C59.4812 28.9495 59.6558 29.1459 59.8769 29.302C60.1023 29.4582 60.3565 29.5742 60.6395 29.6501C60.9268 29.7215 61.2252 29.7572 61.5346 29.7572C61.9811 29.7572 62.3591 29.6947 62.6686 29.5698C62.978 29.4448 63.2123 29.2663 63.3714 29.0343C63.535 28.8023 63.6168 28.5279 63.6168 28.211Z" fill="white"/>
<path d="M20.0366 51.7465V42.1411H25.9138V42.9149H20.871V46.3835H25.423V47.1573H20.871V50.9728H26.0365V51.7465H20.0366Z" fill="white"/>
<path d="M29.5987 43.3685H29.5741V51.7465H28.7398V42.1411H29.6846L34.7887 50.5325H34.8132V42.1411H35.6476V51.7465H34.6783L29.5987 43.3685Z" fill="white"/>
<path d="M42.6005 47.5575V46.7837H46.3796V51.7465H45.6679V50.1056C45.5125 50.3902 45.3325 50.6526 45.1281 50.8927C44.9317 51.124 44.7027 51.3241 44.441 51.4931C44.1792 51.6532 43.8766 51.7777 43.533 51.8666C43.1895 51.9556 42.8009 52 42.3674 52C41.8112 52 41.2958 51.8933 40.8214 51.6798C40.347 51.4664 39.938 51.1507 39.5945 50.7326C39.2509 50.3057 38.981 49.7721 38.7847 49.1317C38.5965 48.4914 38.5025 47.7443 38.5025 46.8905C38.5025 46.1879 38.5843 45.5342 38.7479 44.9294C38.9115 44.3157 39.1609 43.7865 39.4963 43.3418C39.8399 42.8882 40.2652 42.5325 40.7723 42.2745C41.2877 42.0166 41.893 41.8877 42.5882 41.8877C43.0545 41.8877 43.488 41.9499 43.8888 42.0744C44.2978 42.1989 44.6618 42.3902 44.9808 42.6481C45.308 42.8971 45.582 43.2128 45.8029 43.5953C46.0237 43.9688 46.1832 44.4135 46.2814 44.9294H45.4225C45.3489 44.5736 45.2221 44.2534 45.0422 43.9688C44.8704 43.6842 44.6618 43.4485 44.4164 43.2618C44.171 43.0661 43.897 42.9193 43.5944 42.8215C43.2917 42.7148 42.9768 42.6614 42.6496 42.6614C42.0688 42.6614 41.5699 42.7726 41.1527 42.9949C40.7355 43.2173 40.392 43.533 40.1221 43.9422C39.8521 44.3424 39.6517 44.8271 39.5208 45.3963C39.3982 45.9566 39.3368 46.5747 39.3368 47.2507C39.3368 47.7843 39.4063 48.2913 39.5454 48.7715C39.6926 49.2518 39.9012 49.6743 40.1711 50.0389C40.4492 50.4036 40.7846 50.6926 41.1772 50.9061C41.578 51.1195 42.032 51.2263 42.5392 51.2263C42.7764 51.2263 43.0218 51.1996 43.2753 51.1462C43.5289 51.084 43.7743 50.9861 44.0115 50.8527C44.2487 50.7193 44.4696 50.5459 44.6741 50.3324C44.8786 50.119 45.0544 49.8566 45.2017 49.5453C45.3407 49.2429 45.4348 48.9272 45.4839 48.5981C45.5411 48.269 45.5738 47.9222 45.582 47.5575H42.6005Z" fill="white"/>
<path d="M49.6227 51.7465V42.1411H50.457V50.9728H55.1931V51.7465H49.6227Z" fill="white"/>
<path d="M57.9619 51.7465V42.1411H58.7962V51.7465H57.9619Z" fill="white"/>
<path d="M62.6528 48.8783C62.6855 49.3052 62.7714 49.6698 62.9104 49.9722C63.0577 50.2657 63.2417 50.5058 63.4626 50.6926C63.6916 50.8794 63.9534 51.0172 64.2478 51.1062C64.5423 51.1862 64.8572 51.2263 65.1926 51.2263C65.5852 51.2263 65.9247 51.1729 66.211 51.0662C66.4973 50.9594 66.7304 50.8171 66.9103 50.6393C67.0903 50.4525 67.2212 50.239 67.303 49.9989C67.3929 49.7588 67.4379 49.5053 67.4379 49.2385C67.4379 48.8649 67.3602 48.5625 67.2048 48.3313C67.0494 48.1 66.8449 47.9133 66.5913 47.771C66.3459 47.6198 66.0596 47.4997 65.7325 47.4108C65.4134 47.3218 65.0822 47.2373 64.7386 47.1573C64.4032 47.0684 64.072 46.9661 63.7448 46.8505C63.4258 46.7348 63.1395 46.5792 62.8859 46.3835C62.6405 46.1879 62.4401 45.9388 62.2847 45.6364C62.1293 45.3251 62.0516 44.9338 62.0516 44.4624C62.0516 44.1334 62.1129 43.8132 62.2356 43.5019C62.3665 43.1906 62.5546 42.9149 62.8 42.6748C63.0536 42.4346 63.3685 42.2434 63.7448 42.1011C64.121 41.9588 64.5546 41.8877 65.0453 41.8877C65.5443 41.8877 65.9778 41.9633 66.3459 42.1144C66.7222 42.2656 67.033 42.4747 67.2784 42.7415C67.5238 42.9994 67.7079 43.3018 67.8306 43.6487C67.9532 43.9955 68.0146 44.3646 68.0146 44.7559H67.2171C67.2171 44.3913 67.1557 44.0756 67.033 43.8087C66.9185 43.5419 66.759 43.324 66.5545 43.155C66.35 42.9861 66.1169 42.8615 65.8551 42.7815C65.5934 42.7015 65.3235 42.6614 65.0453 42.6614C64.62 42.6614 64.2601 42.7281 63.9656 42.8615C63.6793 42.9861 63.4503 43.1506 63.2785 43.3552C63.1068 43.5597 62.9881 43.7865 62.9227 44.0355C62.8573 44.2846 62.845 44.5336 62.8859 44.7826C62.935 45.0939 63.0495 45.3429 63.2295 45.5297C63.4094 45.7165 63.6303 45.8721 63.892 45.9966C64.1538 46.1123 64.4401 46.2101 64.7509 46.2901C65.0699 46.3613 65.393 46.4413 65.7202 46.5303C66.0474 46.6103 66.3623 46.7082 66.6649 46.8238C66.9758 46.9394 67.2498 47.095 67.487 47.2907C67.7242 47.4864 67.9124 47.7398 68.0514 48.0511C68.1986 48.3535 68.2723 48.736 68.2723 49.1984C68.2723 50.0878 67.9901 50.7771 67.4257 51.2663C66.8613 51.7554 66.0678 52 65.0453 52C64.5873 52 64.1619 51.9333 63.7693 51.7999C63.3767 51.6754 63.0372 51.4842 62.7509 51.2263C62.4646 50.9594 62.2397 50.6348 62.0761 50.2524C61.9207 49.861 61.843 49.403 61.843 48.8783H62.6528Z" fill="white"/>
<path d="M71.0247 51.7465V42.1411H71.859V46.2635H77.0859V42.1411H77.9202V51.7465H77.0859V47.0372H71.859V51.7465H71.0247Z" fill="white"/>
</svg>
